<?xml version="1.0" standalone="no"?>
<!DOCTYPE svg PUBLIC "-//W3C//DTD SVG 20010904//EN"
 "http://www.w3.org/TR/2001/REC-SVG-20010904/DTD/svg10.dtd">
<svg version="1.0" xmlns="http://www.w3.org/2000/svg"
 width="260.000000pt" height="260.000000pt" viewBox="0 0 260.000000 260.000000"
 preserveAspectRatio="xMidYMid meet">
<metadata>
Created by potrace 1.11, written by Peter Selinger 2001-2013
</metadata>
<g transform="translate(0.000000,260.000000) scale(0.100000,-0.100000)"
fill="#000000" stroke="none">
<path d="M2145 2322 c-154 -152 -296 -286 -315 -297 -19 -11 -44 -36 -55 -54
-23 -40 -171 -198 -199 -213 -34 -18 -298 -30 -419 -19 -199 18 -255 49 -296
161 -28 77 -63 117 -126 146 -130 61 -314 4 -375 -117 -25 -48 -27 -156 -4
-223 23 -67 99 -146 184 -190 39 -21 68 -41 65 -46 -3 -5 -18 -11 -35 -15 -35
-8 -87 -64 -95 -103 -4 -15 -8 -37 -11 -48 -7 -37 15 -127 41 -166 14 -21 42
-49 63 -62 33 -20 40 -32 51 -78 6 -30 20 -77 31 -104 l19 -49 -335 -335 -334
-336 0 -87 0 -87 88 0 87 0 305 305 c168 168 308 304 311 303 4 -2 40 -48 81
-103 167 -225 349 -377 430 -361 107 21 359 279 494 504 20 34 37 62 38 62 1
0 29 -25 61 -56 61 -56 228 -174 247 -174 6 0 8 10 4 22 -6 23 -21 139 -30
236 -6 59 -8 58 79 37 33 -8 82 -14 108 -15 l48 0 -30 38 c-16 20 -52 78 -79
128 -27 50 -56 101 -65 114 -23 33 -68 60 -99 60 -16 0 -28 2 -28 5 0 2 10 24
22 47 27 51 35 150 18 202 -15 46 -61 92 -100 101 -29 6 -42 25 -17 25 35 0
144 65 196 117 68 69 91 125 91 225 0 73 -14 114 -56 158 l-24 26 210 209 210
210 0 87 0 88 -87 0 -88 0 -280 -278z m-1338 -889 c37 -5 42 -9 47 -37 8 -42
54 -85 98 -92 46 -8 93 17 120 62 20 33 21 34 86 34 l67 0 -99 -99 c-72 -72
-112 -104 -145 -117 -25 -9 -97 -41 -160 -71 -63 -29 -115 -53 -117 -53 -2 0
-7 18 -10 40 -5 33 -11 40 -29 40 -54 0 -105 71 -105 145 0 59 23 82 90 91 49
6 50 7 50 42 0 34 1 34 33 28 17 -4 51 -9 74 -13z m1063 -22 c0 -26 3 -29 49
-35 71 -9 95 -41 88 -115 -7 -68 -32 -103 -83 -116 -45 -11 -54 -20 -54 -57 0
-16 -2 -28 -4 -28 -2 0 -55 23 -117 51 -129 58 -294 119 -324 119 -16 0 -10
10 31 50 l50 51 37 -16 c20 -8 47 -15 59 -15 38 0 88 38 105 78 8 20 17 39 19
41 6 6 129 28 137 24 4 -2 7 -17 7 -32z"/>
<path d="M1077 2493 c-57 -19 -140 -90 -167 -143 -10 -20 -33 -83 -49 -139
l-31 -102 35 -30 c32 -28 95 -137 95 -164 0 -20 43 -53 85 -64 64 -17 270 -24
398 -12 119 10 170 27 187 61 5 8 22 45 39 82 17 36 47 80 66 97 l35 30 -31
102 c-48 162 -82 216 -166 261 -70 37 -117 42 -183 17 -86 -32 -97 -33 -148
-11 -70 30 -110 34 -165 15z"/>
</g>
</svg>
